<?xml version="1.0" encoding="UTF-8" standalone="no"?>
<svg
   width="29"
   height="29"
   viewBox="0 0 29 29"
   fill="none"
   version="1.1"
   id="svg14"
   xml:space="preserve"
   xmlns="http://www.w3.org/2000/svg"><defs
     id="defs18" /><g
     id="Button copy"
     transform="translate(-21.022346,1.6778399)"><g
       id="Group 35"><path
         id="Forma 1_3"
         d="m 153.201,29 c -0.648,-0.0262 -1.259,-0.3052 -1.704,-0.7773 -0.444,-0.4721 -0.686,-1.0995 -0.673,-1.7477 0.014,-0.6481 0.28,-1.2653 0.743,-1.7191 0.463,-0.4537 1.086,-0.7079 1.734,-0.7079 0.648,0 1.271,0.2542 1.734,0.7079 0.463,0.4538 0.729,1.071 0.742,1.7191 0.014,0.6482 -0.228,1.2756 -0.672,1.7477 -0.445,0.4721 -1.056,0.7511 -1.704,0.7773 z m -19.448,-2.68 c 0,-0.53 0.157,-1.0482 0.452,-1.4889 0.294,-0.4407 0.713,-0.7842 1.202,-0.9871 0.49,-0.2028 1.029,-0.2559 1.549,-0.1525 0.52,0.1034 0.997,0.3587 1.372,0.7335 0.375,0.3748 0.63,0.8523 0.734,1.3722 0.103,0.5198 0.05,1.0587 -0.153,1.5484 -0.203,0.4897 -0.546,0.9083 -0.987,1.2027 -0.441,0.2945 -0.959,0.4517 -1.489,0.4517 -0.352,3e-4 -0.701,-0.0689 -1.026,-0.2034 -0.326,-0.1346 -0.621,-0.332 -0.87,-0.5808 -0.249,-0.2489 -0.447,-0.5445 -0.582,-0.8697 -0.135,-0.3253 -0.204,-0.674 -0.204,-1.0261 z m 3.8,-5.634 c -0.259,8e-4 -0.512,-0.0836 -0.719,-0.2403 -0.207,-0.1566 -0.356,-0.3768 -0.426,-0.6267 L 131.575,2.36401 h -3.393 c -0.313,0 -0.614,-0.12454 -0.836,-0.3462 C 127.125,1.79614 127,1.49549 127,1.18201 127,0.868519 127.125,0.567873 127.346,0.346205 127.568,0.124537 127.869,5.81268e-6 128.182,5.81268e-6 h 4.281 C 132.723,-8.0736e-4 132.975,0.0837201 133.182,0.240568 c 0.206,0.156848 0.356,0.377316 0.425,0.627438 L 138.44,18.323 h 13.178 l 4.383,-10.04799 h -14.6 c -0.158,0.0046 -0.316,-0.02259 -0.463,-0.07994 -0.148,-0.05736 -0.282,-0.14373 -0.396,-0.25399 -0.113,-0.11026 -0.203,-0.24217 -0.265,-0.38793 -0.062,-0.14576 -0.093,-0.3024 -0.093,-0.46065 0,-0.15824 0.031,-0.31488 0.093,-0.46064 0.062,-0.14576 0.152,-0.27767 0.265,-0.38793 0.114,-0.11026 0.248,-0.19663 0.396,-0.25399 0.147,-0.05735 0.305,-0.08453 0.463,-0.07993 h 16.413 c 0.196,-5e-5 0.388,0.04865 0.56,0.14171 0.173,0.09306 0.319,0.22754 0.426,0.39129 0.108,0.16428 0.173,0.35268 0.191,0.54844 0.017,0.19576 -0.014,0.39279 -0.091,0.57355 l -5.405,12.412 c -0.092,0.2106 -0.244,0.3898 -0.437,0.5157 -0.192,0.1259 -0.417,0.1931 -0.647,0.1933 z"
         fill="#e8e8e8" /></g></g><g
     style="fill:none"
     id="g200"
     transform="translate(-27.188638,-35.818437)"><g
       id="Button copy-4"
       transform="translate(0.39478585,-0.19739297)"><path
         id="Forma 1"
         d="M 0,27 V 24.31 H 32 V 27 Z M 0,16.76 v -2.69 h 32 v 2.69 z M 0,6.69 V 4 h 32 v 2.69 z"
         fill="#e8e8e8" /><path
         id="Forma 1_2"
         d="m 41.293852,55.95283 c 4.5,0 8.156,-4.473 8.156,-9.969 0,-5.496 -3.656,-9.968 -8.156,-9.968 -1.1369,0.02174 -2.2537,0.303398 -3.2649,0.823397 -1.0112,0.519993 -1.89,1.264543 -2.5691,2.176603 -1.5394,1.99573 -2.3578,4.45381 -2.322,6.974 0,5.491 3.656,9.963 8.156,9.963 z m 0,-18.124 c 3.5,0 6.344,3.659 6.344,8.156 0,4.497 -2.846,8.156 -6.344,8.156 -3.498,0 -6.344,-3.66 -6.345,-8.156 -0.001,-4.496 2.845,-8.156 6.345,-8.156 z m 6.344,16.312 c -0.2404,0 -0.471,0.0955 -0.641,0.2655 -0.17,0.17 -0.2655,0.4006 -0.2655,0.641 0,0.2404 0.0955,0.471 0.2655,0.641 0.17,0.17 0.4006,0.2655 0.641,0.2655 1.682,0.0019 3.2946,0.6708 4.4839,1.8602 1.1893,1.1893 1.8582,2.8018 1.8601,4.4838 -5e-4,0.2401 -0.0962,0.4703 -0.266,0.6401 -0.1698,0.1697 -0.3999,0.2654 -0.64,0.2659 h -23.562 c -0.2402,-5e-4 -0.4703,-0.0962 -0.64,-0.2659 -0.1698,-0.1698 -0.2655,-0.4 -0.266,-0.6401 0.0021,-1.6819 0.6712,-3.2943 1.8604,-4.4835 1.1893,-1.1893 2.8017,-1.8584 4.4836,-1.8605 0.2402,0 0.4707,-0.0955 0.6406,-0.2654 0.1699,-0.1699 0.2654,-0.4003 0.2654,-0.6406 0,-0.2403 -0.0955,-0.4707 -0.2654,-0.6406 -0.1699,-0.1699 -0.4004,-0.2654 -0.6406,-0.2654 -2.1626,0.0019 -4.236,0.8615 -5.7654,2.3904 -1.5295,1.5289 -2.39,3.6021 -2.3926,5.7646 8e-4,0.7209 0.2875,1.412 0.7972,1.9217 0.5098,0.5098 1.2009,0.7965 1.9218,0.7973 h 23.563 c 0.7207,-0.0011 1.4116,-0.2879 1.9211,-0.7976 0.5095,-0.5097 0.7961,-1.2007 0.7969,-1.9214 -0.0026,-2.1623 -0.8628,-4.2353 -2.3917,-5.7642 -1.529,-1.529 -3.602,-2.3892 -5.7643,-2.3918 z"
         fill="#e8e8e8" /><g
         id="Group 35-2"><path
           id="Forma 1_3-7"
           d="m 153.201,29 c -0.648,-0.0262 -1.259,-0.3052 -1.704,-0.7773 -0.444,-0.4721 -0.686,-1.0995 -0.673,-1.7477 0.014,-0.6481 0.28,-1.2653 0.743,-1.7191 0.463,-0.4537 1.086,-0.7079 1.734,-0.7079 0.648,0 1.271,0.2542 1.734,0.7079 0.463,0.4538 0.729,1.071 0.742,1.7191 0.014,0.6482 -0.228,1.2756 -0.672,1.7477 -0.445,0.4721 -1.056,0.7511 -1.704,0.7773 z m -19.448,-2.68 c 0,-0.53 0.157,-1.0482 0.452,-1.4889 0.294,-0.4407 0.713,-0.7842 1.202,-0.9871 0.49,-0.2028 1.029,-0.2559 1.549,-0.1525 0.52,0.1034 0.997,0.3587 1.372,0.7335 0.375,0.3748 0.63,0.8523 0.734,1.3722 0.103,0.5198 0.05,1.0587 -0.153,1.5484 -0.203,0.4897 -0.546,0.9083 -0.987,1.2027 -0.441,0.2945 -0.959,0.4517 -1.489,0.4517 -0.352,3e-4 -0.701,-0.0689 -1.026,-0.2034 -0.326,-0.1346 -0.621,-0.332 -0.87,-0.5808 -0.249,-0.2489 -0.447,-0.5445 -0.582,-0.8697 -0.135,-0.3253 -0.204,-0.674 -0.204,-1.0261 z m 3.8,-5.634 c -0.259,8e-4 -0.512,-0.0836 -0.719,-0.2403 -0.207,-0.1566 -0.356,-0.3768 -0.426,-0.6267 L 131.575,2.36401 h -3.393 c -0.313,0 -0.614,-0.12454 -0.836,-0.3462 C 127.125,1.79614 127,1.49549 127,1.18201 127,0.868519 127.125,0.567873 127.346,0.346205 127.568,0.124537 127.869,5.81268e-6 128.182,5.81268e-6 h 4.281 C 132.723,-8.0736e-4 132.975,0.0837201 133.182,0.240568 c 0.206,0.156848 0.356,0.377316 0.425,0.627438 L 138.44,18.323 h 13.178 l 4.383,-10.04799 h -14.6 c -0.158,0.0046 -0.316,-0.02259 -0.463,-0.07994 -0.148,-0.05736 -0.282,-0.14373 -0.396,-0.25399 -0.113,-0.11026 -0.203,-0.24217 -0.265,-0.38793 -0.062,-0.14576 -0.093,-0.3024 -0.093,-0.46065 0,-0.15824 0.031,-0.31488 0.093,-0.46064 0.062,-0.14576 0.152,-0.27767 0.265,-0.38793 0.114,-0.11026 0.248,-0.19663 0.396,-0.25399 0.147,-0.05735 0.305,-0.08453 0.463,-0.07993 h 16.413 c 0.196,-5e-5 0.388,0.04865 0.56,0.14171 0.173,0.09306 0.319,0.22754 0.426,0.39129 0.108,0.16428 0.173,0.35268 0.191,0.54844 0.017,0.19576 -0.014,0.39279 -0.091,0.57355 l -5.405,12.412 c -0.092,0.2106 -0.244,0.3898 -0.437,0.5157 -0.192,0.1259 -0.417,0.1931 -0.647,0.1933 z"
           fill="#e8e8e8" /></g></g></g></svg>
